# xmcd
#
# Track frame offsets: 
#        150
#        11252
#        23925
#        37481
#        50540
#        62352
#        75484
#        88386
#        100546
#        113823
#        125437
#        137588
#        150787
#        164811
#        177485
#        188509
#        200882
#        213706
#        226155
#        239729
#
# Disc length: 3371 seconds
#
# Revision: 1
# Processed by: cddbd v1.5.2PL0 Copyright (c) Steve Scherf et al.
# Submitted via: ExactAudioCopyFreeDBPlugin 1.0
#
DISCID=120d2914
DTITLE=Big Joe Turner, Eddie Cleanhead Vinson - ABC Of The Blues - Vol
DTITLE=45 Turner, Vinson
DYEAR=2010
DGENRE=Blues
TTITLE0=Big Joe Turner - Blues In The Night
TTITLE1=Big Joe Turner - Sun Risin' Blues
TTITLE2=Big Joe Turner - S.K. Blues Part 1
TTITLE3=Big Joe Turner - Nobody In Mind
TTITLE4=Big Joe Turner - Blues On Central Avenue
TTITLE5=Big Joe Turner - Ice Man
TTITLE6=Big Joe Turner - Cry Baby Blues
TTITLE7=Big Joe Turner - Rebecca
TTITLE8=Big Joe Turner - It's The Same Old Story
TTITLE9=Big Joe Turner - Chewed Up Grass
TTITLE10=Eddie Cleanhead Vinson - Too Many Women Blues
TTITLE11=Eddie Cleanhead Vinson - Just A Dream
TTITLE12=Eddie Cleanhead Vinson - King For A Day Blues
TTITLE13=Eddie Cleanhead Vinson - Railroad Porter's Blues
TTITLE14=Eddie Cleanhead Vinson - Gonna Send You Back Where I Got You 
TTITLE14=From
TTITLE15=Eddie Cleanhead Vinson - When I Get Drunk
TTITLE16=Eddie Cleanhead Vinson - Oil Man Blues
TTITLE17=Eddie Cleanhead Vinson - Ever-Ready Blues
TTITLE18=Eddie Cleanhead Vinson - I've Been So Good
TTITLE19=Eddie Cleanhead Vinson - Bonus Pay
EXTD=
EXTT0=
EXTT1=
EXTT2=
EXTT3=
EXTT4=
EXTT5=
EXTT6=
EXTT7=
EXTT8=
EXTT9=
EXTT10=
EXTT11=
EXTT12=
EXTT13=
EXTT14=
EXTT15=
EXTT16=
EXTT17=
EXTT18=
EXTT19=
PLAYORDER=
